<?xml version="1.0" encoding="UTF-8" standalone="no"?>
<svg
   xmlns:osb="http://www.openswatchbook.org/uri/2009/osb"
   xmlns:dc="http://purl.org/dc/elements/1.1/"
   xmlns:cc="http://creativecommons.org/ns#"
   xmlns:rdf="http://www.w3.org/1999/02/22-rdf-syntax-ns#"
   xmlns:svg="http://www.w3.org/2000/svg"
   xmlns="http://www.w3.org/2000/svg"
   xmlns:xlink="http://www.w3.org/1999/xlink"
   width="328.67261"
   height="69.343903"
   viewBox="0 0 86.96129 18.347241"
   version="1.1"
   id="svg1">
  <defs
     id="defs1" />
  <metadata
     id="metadata1">
    <rdf:RDF>
      <cc:Work
         rdf:about="">
        <dc:format>image/svg+xml</dc:format>
        <dc:type
           rdf:resource="http://purl.org/dc/dcmitype/StillImage" />
        <dc:title></dc:title>
      </cc:Work>
    </rdf:RDF>
  </metadata>
  <g
     id="layer1"
     transform="translate(-48.02443,-25.053814)"
     style="opacity:1">
    <path
       id="path1"
       style="fill:#4a4a4a;fill-opacity:1;stroke-width:3.77953"
       d="m 223.96484,0 c -3.23263,0 -6.19855,0.61978823 -8.89648,1.859375 -2.67361,1.2395843 -4.76454,2.9659221 -6.27148,5.1777344 -1.48266,2.1875049 -2.22266,4.6666606 -2.22266,7.4374996 h 10.53516 c -10e-6,-1.774309 0.68186,-3.208982 2.04296,-4.302734 1.36114,-1.1180598 3.04905,-1.6777344 5.06641,-1.6777344 2.23612,0 3.98613,0.5961349 5.25,1.7871094 1.28821,1.190977 1.93359,2.855248 1.93359,4.994141 0,2.211809 -0.64538,3.98741 -1.93359,5.324218 -1.28819,1.336809 -3.26779,2.003907 -5.94141,2.003907 h -5.61523 v 8.240234 h 5.57812 c 5.83335,0 8.75,2.648643 8.75,7.947266 0,2.187505 -0.71636,3.950303 -2.15039,5.287109 -1.40971,1.312504 -3.36761,1.96875 -5.87109,1.96875 -2.18751,0 -4.03407,-0.632593 -5.54102,-1.896484 -1.48263,-1.263892 -2.2246,-2.891705 -2.22461,-4.884766 h -10.53515 c 0,4.593761 1.67707,8.28884 5.03125,11.083984 3.37847,2.795145 7.717,4.191407 13.01562,4.191407 5.66322,0 10.20767,-1.421871 13.63477,-4.265625 3.45139,-2.843757 5.17773,-6.622603 5.17773,-11.337891 0,-2.916674 -0.74197,-5.445092 -2.22461,-7.583984 -1.45834,-2.138895 -3.68229,-3.743053 -6.67187,-4.8125 2.40625,-1.093753 4.35135,-2.661455 5.83398,-4.703125 1.48266,-2.041671 2.22266,-4.27647 2.22266,-6.707032 0,-4.715288 -1.59134,-8.4103664 -4.77539,-11.083984 C 233.97808,1.3489525 229.57946,0 223.96484,0 Z m 86.73438,0 c -5.78472,0 -10.22178,1.9194784 -13.3086,5.7597656 -3.06252,3.8402847 -4.59374,9.4676484 -4.59374,16.8808594 v 9.771484 c 0.0729,7.121545 1.64059,12.590271 4.70312,16.40625 3.0625,3.81598 7.48674,5.722657 13.27148,5.722657 5.85764,0 10.30554,-1.943135 13.34375,-5.832032 3.03819,-3.888897 4.55665,-9.503456 4.55665,-16.84375 V 22.09375 C 328.59896,14.972205 327.03125,9.5162843 323.96875,5.7246094 320.90625,1.9086295 316.48396,0 310.69922,0 Z m -33.79688,0.18164062 c -5.37154,0.0243074 -10.10024,1.25303248 -14.18359,3.68359378 -4.05904,2.4062538 -7.18163,5.8205186 -9.36914,10.2441406 -2.1632,4.399315 -3.24414,9.479804 -3.24414,15.240234 v 3.791016 c 0,6.489597 1.71352,11.679462 5.14062,15.568359 3.45139,3.888897 7.9722,5.832032 13.5625,5.832032 3.45139,0 6.53753,-0.776474 9.25977,-2.332032 2.74653,-1.55556 4.86112,-3.732199 6.34375,-6.527343 1.50695,-2.795145 2.25977,-5.917744 2.25977,-9.369141 -10e-6,-5.395845 -1.35982,-9.74717 -4.08204,-13.052734 -2.72224,-3.305563 -6.39366,-4.957032 -11.01172,-4.957032 -4.30208,0 -7.86218,1.43272 -10.68164,4.300782 0.58334,-4.277788 2.32055,-7.619137 5.2129,-10.025391 2.91668,-2.406254 6.75759,-3.6458303 11.52148,-3.71875 h 1.02148 V 0.18164062 Z M 0,0.72851562 V 53.8125 H 9.2246094 V 33.359375 H 19.505859 L 30.150391,53.8125 H 40.03125 V 53.337891 L 28.109375,31.208984 c 3.062506,-1.288196 5.445092,-3.12391 7.146484,-5.505859 1.7257,-2.406256 2.587891,-5.383022 2.587891,-8.931641 0,-5.201401 -1.664271,-9.1753398 -4.994141,-11.9218746 C 29.51974,2.1030771 24.791027,0.72851562 18.666016,0.72851562 Z m 129.0625,0 V 53.8125 h 34.70898 V 46.447266 H 138.28711 V 30.115234 h 21.80273 V 22.822266 H 138.28711 V 8.1660156 h 25.22851 V 0.72851562 Z M 9.2246094,8.1660156 h 9.7343746 c 3.208341,0.04861 5.61458,0.8506897 7.21875,2.4062504 1.628478,1.555557 2.441407,3.755852 2.441407,6.599609 0,2.722227 -0.874996,4.87326 -2.625,6.453125 -1.750005,1.55556 -4.179898,2.333984 -7.291016,2.333984 H 9.2246094 Z M 310.69922,8.53125 c 2.55209,0 4.4223,1.008025 5.61328,3.025391 1.21529,1.993058 1.82422,5.190526 1.82422,9.589843 v 12.613282 c -0.0486,4.156258 -0.64476,7.244353 -1.78711,9.261718 -1.14238,2.017366 -3.00175,3.025391 -5.57813,3.025391 -2.60071,0 -4.49652,-1.044483 -5.6875,-3.134766 -1.16666,-2.114587 -1.75,-5.335712 -1.75,-9.662109 V 20.34375 c 0.0729,-4.059036 0.69271,-7.035802 1.85938,-8.931641 1.19098,-1.9201407 3.02669,-2.880859 5.50586,-2.880859 z M 62.162109,13.634766 c -3.378479,0 -6.440967,0.864144 -9.1875,2.589843 -2.746534,1.725697 -4.886715,4.142789 -6.417968,7.253907 -1.506948,3.086813 -2.259766,6.5996 -2.259766,10.537109 v 1.09375 c 0,5.881958 1.737189,10.597866 5.212891,14.146484 3.500008,3.524314 8.057278,5.285157 13.671875,5.285157 3.281257,0 6.234369,-0.643444 8.859375,-1.931641 2.64931,-1.312504 4.763884,-3.148215 6.34375,-5.505859 l -4.775391,-4.556641 c -2.552088,3.281257 -5.856979,4.921875 -9.916016,4.921875 -2.892369,0 -5.298606,-0.947914 -7.21875,-2.84375 -1.895836,-1.895839 -2.978732,-4.471563 -3.246093,-7.728516 h 25.777343 v -3.574218 c 0,-6.270846 -1.47113,-11.119784 -4.412109,-14.546875 -2.916674,-3.427092 -7.0601,-5.140625 -12.431641,-5.140625 z m 37.988281,0 c -4.7639,0 -8.592008,1.835711 -11.484374,5.505859 -2.868062,3.645841 -4.300782,8.531236 -4.300782,14.65625 0,6.489597 1.458329,11.570086 4.375,15.240234 2.940979,3.670146 6.719825,5.503907 11.337886,5.503907 4.25349,0 7.6569,-1.421871 10.20899,-4.265625 V 52.9375 c 0,3.086811 -0.85134,5.420135 -2.55273,7 -1.7014,1.60417 -4.02192,2.40625 -6.9629,2.40625 -3.986117,0 -7.340268,-1.616964 -10.062496,-4.849609 l -4.193359,5.324218 c 1.434031,1.944449 3.524952,3.512151 6.271484,4.703125 2.77084,1.215282 5.601772,1.822266 8.494141,1.822266 5.46876,0 9.80728,-1.494784 13.01563,-4.484375 3.23264,-2.989589 4.8496,-7.072904 4.8496,-12.25 V 14.365234 h -7.98437 l -0.40234,3.972657 c -2.5764,-3.135423 -6.11284,-4.703125 -10.60938,-4.703125 z m 67.37695,0.730468 12.03125,19.431641 -12.46875,20.015625 h 9.84375 l 7.83789,-13.490234 7.875,13.490234 h 9.77149 l -12.46875,-20.015625 12.0664,-19.431641 h -9.84374 L 184.66211,27.34375 177.29688,14.365234 Z M 62.125,20.744141 c 2.454866,0 4.374345,0.765619 5.759766,2.296875 1.385421,1.506948 2.176649,3.7437 2.371093,6.708984 v 0.65625 H 53.375 c 0.413196,-3.038201 1.361109,-5.407983 2.84375,-7.109375 1.506948,-1.701395 3.475689,-2.552734 5.90625,-2.552734 z m 40.28711,0.146484 c 3.57292,0 6.19791,1.494786 7.875,4.484375 v 17.353516 c -1.7257,3.062505 -4.37629,4.59375 -7.94922,4.59375 -2.868061,0 -5.115665,-1.130203 -6.74414,-3.390625 -1.60417,-2.284727 -2.40625,-5.407327 -2.40625,-9.369141 0,-4.496537 0.80208,-7.89995 2.40625,-10.208984 1.628475,-2.309032 3.901685,-3.462891 6.81836,-3.462891 z m 165.95898,5.869141 c 2.38196,0 4.27777,0.8878 5.6875,2.662109 1.40972,1.774309 2.11329,4.107631 2.11329,7 0,2.843757 -0.70357,5.164276 -2.11329,6.962891 -1.38542,1.774309 -3.20831,2.662109 -5.46875,2.662109 -2.50348,0 -4.44858,-0.984372 -5.83398,-2.953125 -1.38542,-1.993061 -2.07813,-4.751077 -2.07813,-8.275391 v -3.208984 c 0.65626,-1.458338 1.67708,-2.624999 3.0625,-3.5 1.3854,-0.899308 2.92947,-1.349609 4.63086,-1.349609 z"
       transform="matrix(0.26458333,0,0,0.26458333,48.02443,25.053814)" />
  </g>
</svg>
